<svg width="162" height="48" viewBox="0 0 162 48" fill="none" xmlns="http://www.w3.org/2000/svg">
<g clip-path="url(#clip0_383_3735)">
<path d="M149.099 3.39297e-05H12.9072C12.4108 3.39297e-05 11.9203 3.39298e-05 11.4252 0.00243393C11.0107 0.00483393 10.5996 0.0118059 10.1811 0.0176739C9.27207 0.0271561 8.36516 0.0980455 7.46826 0.229726C6.57263 0.364273 5.70505 0.617933 4.89487 0.982126C4.08568 1.3494 3.3463 1.82664 2.70356 2.39652C2.05744 2.9648 1.51885 3.62165 1.1085 4.34183C0.697011 5.06057 0.411687 5.83076 0.262377 6.62581C0.111647 7.41986 0.0305379 8.22306 0.0197775 9.02821C0.00721433 9.39613 0.00588761 9.76527 -0.000732422 10.1332V37.8704C0.00588761 38.243 0.00721433 38.6039 0.0197775 38.9766C0.0305412 39.7817 0.11165 40.5849 0.262377 41.3789C0.411275 42.1744 0.696616 42.9451 1.1085 43.6641C1.51866 44.3819 2.05733 45.0361 2.70356 45.6012C3.34387 46.1737 4.08372 46.6512 4.89487 47.0157C5.70504 47.3808 6.57253 47.636 7.46826 47.7726C8.36531 47.9033 9.27213 47.9742 10.1811 47.9848C10.5996 47.993 11.0107 47.9976 11.4252 47.9976C11.9203 48 12.4108 48 12.9072 48H149.099C149.585 48 150.08 48 150.566 47.9976C150.979 47.9976 151.402 47.993 151.814 47.9848C152.721 47.9747 153.627 47.9038 154.522 47.7726C155.42 47.6351 156.291 47.3799 157.105 47.0157C157.915 46.651 158.655 46.1735 159.294 45.6012C159.939 45.0339 160.479 44.3802 160.894 43.6641C161.303 42.9445 161.585 42.174 161.732 41.3789C161.883 40.5848 161.967 39.7818 161.983 38.9766C161.989 38.6039 161.989 38.243 161.989 37.8704C161.999 37.4344 161.999 37.0008 161.999 36.5578V11.4434C161.999 11.0039 161.999 10.568 161.989 10.1332C161.989 9.76527 161.989 9.39613 161.983 9.02816C161.967 8.22294 161.883 7.41992 161.732 6.62576C161.585 5.83117 161.302 5.06104 160.894 4.34178C160.058 2.89827 158.733 1.72326 157.105 0.982018C156.291 0.618715 155.42 0.365122 154.522 0.229618C153.627 0.0973573 152.722 0.0264432 151.814 0.0175059C151.402 0.0116499 150.979 0.00461793 150.566 0.00227793C150.08 -0.00012207 149.585 -0.00012207 149.099 -0.00012207V3.39297e-05Z" fill="#A6A6A6"/>
<path d="M11.3152 46.9536C10.902 46.9536 10.4988 46.9489 10.0889 46.9408C9.23967 46.931 8.39242 46.8655 7.55411 46.745C6.77242 46.6258 6.01518 46.4042 5.30735 46.0874C4.60602 45.7732 3.96635 45.3612 3.41284 44.8672C2.85133 44.379 2.38384 43.8128 2.0289 43.1911C1.67006 42.5652 1.42171 41.8944 1.29252 41.202C1.15301 40.458 1.07753 39.7057 1.06673 38.9515C1.05813 38.6984 1.04688 37.8556 1.04688 37.8556V10.1291C1.04688 10.1291 1.05886 9.29925 1.0668 9.05544C1.07714 8.3025 1.15218 7.55135 1.29128 6.80849C1.4207 6.11417 1.66924 5.44142 2.02828 4.81355C2.38191 4.1922 2.8468 3.62558 3.40494 3.13566C3.96245 2.64109 4.60416 2.22698 5.30669 1.90844C6.01289 1.59263 6.7687 1.37255 7.5488 1.25557C8.38987 1.13383 9.24006 1.06801 10.0922 1.05866L11.3159 1.04401H150.683L151.921 1.05925C152.766 1.06813 153.608 1.13337 154.442 1.2544C155.23 1.37285 155.993 1.59446 156.708 1.91196C158.115 2.55391 159.26 3.56953 159.983 4.81648C160.336 5.44002 160.581 6.10727 160.709 6.7956C160.849 7.54455 160.928 8.30161 160.944 9.06072C160.948 9.40063 160.948 9.76575 160.948 10.1291C160.959 10.5792 160.959 11.0076 160.959 11.4395V36.5592C160.959 36.9952 160.959 37.4207 160.948 37.8497C160.948 38.24 160.948 38.5976 160.943 38.9656C160.927 39.7111 160.85 40.4547 160.711 41.1902C160.585 41.8877 160.338 42.5637 159.979 43.1947C159.621 43.8097 159.157 44.371 158.602 44.8578C158.047 45.3545 157.407 45.7689 156.704 46.0851C155.991 46.4044 155.229 46.6268 154.442 46.745C153.603 46.8662 152.756 46.9316 151.907 46.9408C151.51 46.9489 151.094 46.9536 150.69 46.9536L149.22 46.956L11.3152 46.9536Z" fill="black"/>
<path d="M39.3561 24.3608C39.369 23.3592 39.6351 22.3772 40.1295 21.506C40.6239 20.6349 41.3307 19.903 42.184 19.3783C41.6419 18.6042 40.9268 17.967 40.0954 17.5176C39.264 17.0681 38.3393 16.8187 37.3946 16.7891C35.3795 16.5776 33.426 17.9949 32.3991 17.9949C31.3524 17.9949 29.7714 16.8101 28.0689 16.8452C26.9677 16.8807 25.8945 17.201 24.9539 17.7746C24.0132 18.3483 23.2372 19.1558 22.7014 20.1186C20.3806 24.1367 22.1117 30.042 24.3349 33.2899C25.4472 34.8803 26.7471 36.6569 28.448 36.5939C30.1125 36.5248 30.7342 35.5325 32.7433 35.5325C34.7338 35.5325 35.3171 36.5939 37.0525 36.5538C38.8386 36.5248 39.9639 34.9563 41.0371 33.3508C41.8363 32.2176 42.4513 30.9651 42.8592 29.6398C41.8216 29.2009 40.9361 28.4663 40.3131 27.5276C39.6902 26.5888 39.3574 25.4875 39.3561 24.3608V24.3608Z" fill="white"/>
<path d="M36.0782 14.6531C37.0521 13.484 37.5318 11.9814 37.4157 10.4643C35.9279 10.6206 34.5536 11.3317 33.5666 12.4559C33.084 13.0051 32.7144 13.644 32.4789 14.3361C32.2434 15.0282 32.1466 15.76 32.1941 16.4895C32.9383 16.4972 33.6745 16.3359 34.3473 16.0178C35.0201 15.6997 35.6119 15.2331 36.0782 14.6531Z" fill="white"/>
<path d="M60.3963 32.5676H54.7162L53.3521 36.5953H50.9463L56.3264 21.6937H58.826L64.2061 36.5953H61.7592L60.3963 32.5676ZM55.3045 30.709H59.8069L57.5874 24.1723H57.5252L55.3045 30.709Z" fill="white"/>
<path d="M75.8251 31.1637C75.8251 34.5398 74.018 36.709 71.2911 36.709C70.6003 36.7451 69.9133 36.586 69.3088 36.2498C68.7042 35.9137 68.2065 35.414 67.8727 34.8082H67.8211V40.1894H65.5911V25.7309H67.7497V27.5379H67.7907C68.1399 26.9349 68.6459 26.4379 69.2551 26.0997C69.8642 25.7615 70.5537 25.5947 71.2501 25.6172C74.0075 25.6172 75.8251 27.7969 75.8251 31.1637ZM73.5329 31.1637C73.5329 28.9641 72.3962 27.518 70.6618 27.518C68.9579 27.518 67.8118 28.9945 67.8118 31.1637C67.8118 33.3527 68.9579 34.8188 70.6618 34.8188C72.3962 34.8188 73.5329 33.3832 73.5329 31.1637Z" fill="white"/>
<path d="M87.7831 31.1637C87.7831 34.5399 85.9761 36.709 83.2491 36.709C82.5583 36.7451 81.8713 36.586 81.2668 36.2498C80.6622 35.9137 80.1646 35.4141 79.8308 34.8082H79.7792V40.1895H77.5491V25.7309H79.7077V27.5379H79.7487C80.0978 26.9349 80.6039 26.4379 81.2131 26.0997C81.8222 25.7615 82.5117 25.5947 83.2081 25.6172C85.9655 25.6172 87.7831 27.7969 87.7831 31.1637ZM85.4909 31.1637C85.4909 28.9641 84.3542 27.518 82.6198 27.518C80.9159 27.518 79.7698 28.9945 79.7698 31.1637C79.7698 33.3528 80.9159 34.8188 82.6198 34.8188C84.3542 34.8188 85.4909 33.3832 85.4909 31.1637H85.4909Z" fill="white"/>
<path d="M95.6862 32.4434C95.8514 33.9211 97.287 34.8914 99.2487 34.8914C101.128 34.8914 102.481 33.9211 102.481 32.5886C102.481 31.432 101.665 30.7394 99.7338 30.2648L97.8026 29.7996C95.0663 29.1386 93.7959 27.8589 93.7959 25.7824C93.7959 23.2113 96.0366 21.4453 99.2182 21.4453C102.367 21.4453 104.526 23.2113 104.598 25.7824H102.347C102.212 24.2953 100.983 23.3976 99.1865 23.3976C97.39 23.3976 96.1607 24.3058 96.1607 25.6277C96.1607 26.6812 96.9459 27.3011 98.8666 27.7757L100.508 28.1788C103.566 28.9019 104.836 30.13 104.836 32.3097C104.836 35.0976 102.615 36.8436 99.0834 36.8436C95.7787 36.8436 93.5475 35.1386 93.4033 32.4432L95.6862 32.4434Z" fill="white"/>
<path d="M109.649 23.1598V25.7309H111.715V27.4969H109.649V33.4863C109.649 34.4168 110.063 34.8504 110.971 34.8504C111.216 34.8461 111.461 34.8289 111.704 34.7988V36.5543C111.296 36.6306 110.881 36.6651 110.466 36.6574C108.266 36.6574 107.408 35.8312 107.408 33.7242V27.4969H105.829V25.7309H107.408V23.1598H109.649Z" fill="white"/>
<path d="M112.912 31.1637C112.912 27.7453 114.925 25.5973 118.064 25.5973C121.214 25.5973 123.218 27.7453 123.218 31.1637C123.218 34.5914 121.225 36.7301 118.064 36.7301C114.905 36.7301 112.912 34.5914 112.912 31.1637ZM120.946 31.1637C120.946 28.8188 119.871 27.4348 118.064 27.4348C116.257 27.4348 115.184 28.8293 115.184 31.1637C115.184 33.518 116.257 34.8914 118.064 34.8914C119.871 34.8914 120.946 33.518 120.946 31.1637H120.946Z" fill="white"/>
<path d="M125.057 25.7309H127.184V27.5801H127.235C127.379 27.0025 127.718 26.4921 128.194 26.1347C128.67 25.7772 129.254 25.5945 129.849 25.6172C130.106 25.6163 130.362 25.6442 130.613 25.7004V27.7863C130.288 27.6872 129.95 27.6417 129.611 27.6516C129.287 27.6384 128.964 27.6955 128.664 27.819C128.364 27.9425 128.095 28.1294 127.874 28.3668C127.653 28.6043 127.486 28.8867 127.385 29.1947C127.284 29.5027 127.25 29.829 127.287 30.1512V36.5953H125.057L125.057 25.7309Z" fill="white"/>
<path d="M140.895 33.4043C140.595 35.3766 138.674 36.7301 136.216 36.7301C133.056 36.7301 131.094 34.6125 131.094 31.2152C131.094 27.8074 133.066 25.5973 136.123 25.5973C139.129 25.5973 141.019 27.6621 141.019 30.9562V31.7203H133.345V31.8551C133.31 32.2549 133.36 32.6577 133.492 33.0367C133.624 33.4157 133.836 33.7623 134.112 34.0533C134.389 34.3444 134.724 34.5733 135.096 34.7249C135.467 34.8764 135.867 34.9472 136.268 34.9324C136.795 34.9818 137.324 34.8597 137.776 34.5844C138.228 34.3091 138.579 33.8952 138.777 33.4043L140.895 33.4043ZM133.356 30.1617H138.788C138.808 29.8022 138.753 29.4424 138.627 29.105C138.502 28.7675 138.308 28.4597 138.058 28.2008C137.807 27.9418 137.506 27.7374 137.173 27.6004C136.84 27.4633 136.483 27.3966 136.123 27.4043C135.76 27.4021 135.4 27.4719 135.064 27.6096C134.727 27.7473 134.422 27.9502 134.165 28.2065C133.908 28.4629 133.704 28.7676 133.565 29.1032C133.426 29.4388 133.355 29.7986 133.356 30.1617V30.1617Z" fill="white"/>
<path d="M55.0248 10.4772C55.4923 10.4437 55.9615 10.5143 56.3984 10.684C56.8354 10.8537 57.2292 11.1183 57.5515 11.4587C57.8738 11.799 58.1165 12.2066 58.2622 12.6522C58.4079 13.0977 58.4529 13.57 58.3939 14.035C58.3939 16.3225 57.1576 17.6374 55.0248 17.6374H52.4385V10.4772H55.0248ZM53.5506 16.6248H54.9006C55.2347 16.6448 55.569 16.59 55.8792 16.4645C56.1895 16.3389 56.4678 16.1458 56.694 15.8991C56.9202 15.6524 57.0886 15.3584 57.1868 15.0385C57.285 14.7185 57.3107 14.3807 57.2619 14.0496C57.3072 13.7198 57.2789 13.3841 57.1792 13.0665C57.0794 12.7489 56.9107 12.4573 56.685 12.2126C56.4593 11.9679 56.1823 11.7761 55.8738 11.651C55.5653 11.5259 55.233 11.4706 54.9006 11.4891H53.5506V16.6248Z" fill="white"/>
<path d="M59.6502 14.9332C59.6163 14.5781 59.6569 14.2198 59.7695 13.8814C59.8821 13.5429 60.0642 13.2317 60.3041 12.9677C60.5441 12.7037 60.8365 12.4928 61.1628 12.3485C61.489 12.2041 61.8418 12.1296 62.1985 12.1296C62.5552 12.1296 62.908 12.2041 63.2342 12.3485C63.5604 12.4928 63.8529 12.7037 64.0928 12.9677C64.3327 13.2317 64.5149 13.5429 64.6275 13.8814C64.7401 14.2198 64.7807 14.5781 64.7467 14.9332C64.7813 15.2887 64.7412 15.6475 64.6289 15.9865C64.5166 16.3255 64.3346 16.6373 64.0946 16.9018C63.8546 17.1663 63.5619 17.3777 63.2354 17.5223C62.9088 17.667 62.5556 17.7417 62.1985 17.7417C61.8413 17.7417 61.4881 17.667 61.1616 17.5223C60.835 17.3777 60.5424 17.1663 60.3024 16.9018C60.0624 16.6373 59.8804 16.3255 59.7681 15.9865C59.6558 15.6475 59.6156 15.2887 59.6502 14.9332V14.9332ZM63.6498 14.9332C63.6498 13.7619 63.1237 13.077 62.2002 13.077C61.2733 13.077 60.7518 13.7619 60.7518 14.9332C60.7518 16.1139 61.2733 16.7936 62.2002 16.7936C63.1237 16.7936 63.6499 16.1092 63.6499 14.9332H63.6498Z" fill="white"/>
<path d="M71.5213 17.6373H70.415L69.2982 13.6576H69.2139L68.1018 17.6373H67.0061L65.5166 12.2338H66.5982L67.5662 16.357H67.6459L68.7568 12.2338H69.7799L70.8908 16.357H70.9752L71.9385 12.2338H73.0049L71.5213 17.6373Z" fill="white"/>
<path d="M74.2576 12.2338H75.2841V13.0922H75.3638C75.499 12.7839 75.727 12.5254 76.0161 12.3529C76.3051 12.1803 76.6408 12.1022 76.9763 12.1295C77.2392 12.1097 77.5032 12.1494 77.7488 12.2455C77.9943 12.3416 78.215 12.4917 78.3946 12.6847C78.5743 12.8778 78.7082 13.1087 78.7864 13.3605C78.8646 13.6123 78.8852 13.8784 78.8466 14.1393V17.6373H77.7802V14.407C77.7802 13.5387 77.4029 13.1068 76.6142 13.1068C76.4357 13.0985 76.2575 13.1289 76.0918 13.1959C75.9262 13.2629 75.7769 13.3649 75.6544 13.495C75.5318 13.6251 75.4389 13.7801 75.3818 13.9494C75.3248 14.1188 75.3051 14.2985 75.324 14.4762V17.6373H74.2576L74.2576 12.2338Z" fill="white"/>
<path d="M80.5459 10.1244H81.6123V17.6373H80.5459V10.1244Z" fill="white"/>
<path d="M83.0948 14.9332C83.0608 14.5781 83.1015 14.2198 83.2141 13.8813C83.3268 13.5428 83.5089 13.2316 83.7489 12.9676C83.9888 12.7036 84.2813 12.4927 84.6075 12.3484C84.9338 12.204 85.2866 12.1295 85.6433 12.1295C86.0001 12.1295 86.3529 12.204 86.6791 12.3484C87.0054 12.4927 87.2978 12.7036 87.5378 12.9676C87.7777 13.2316 87.9599 13.5428 88.0725 13.8813C88.1852 14.2198 88.2258 14.5781 88.1919 14.9332C88.2264 15.2887 88.1863 15.6475 88.0739 15.9865C87.9616 16.3256 87.7795 16.6373 87.5395 16.9018C87.2995 17.1663 87.0068 17.3777 86.6802 17.5223C86.3537 17.6669 86.0005 17.7417 85.6433 17.7417C85.2862 17.7417 84.933 17.6669 84.6064 17.5223C84.2798 17.3777 83.9871 17.1663 83.7471 16.9018C83.5071 16.6373 83.3251 16.3256 83.2127 15.9865C83.1004 15.6475 83.0602 15.2887 83.0948 14.9332V14.9332ZM87.0944 14.9332C87.0944 13.762 86.5682 13.077 85.6448 13.077C84.7178 13.077 84.1964 13.762 84.1964 14.9333C84.1964 16.1139 84.7179 16.7936 85.6448 16.7936C86.5682 16.7936 87.0944 16.1092 87.0944 14.9332H87.0944Z" fill="white"/>
<path d="M89.3145 16.1092C89.3145 15.1365 90.0387 14.5758 91.3242 14.4961L92.7879 14.4117V13.9453C92.7879 13.3746 92.4105 13.0524 91.6816 13.0524C91.0863 13.0524 90.6738 13.2709 90.5555 13.653H89.523C89.632 12.7248 90.5051 12.1295 91.7309 12.1295C93.0856 12.1295 93.8496 12.8039 93.8496 13.9453V17.6373H92.823V16.878H92.7387C92.5674 17.1503 92.3269 17.3724 92.0418 17.5215C91.7566 17.6705 91.437 17.7412 91.1156 17.7264C90.8888 17.7499 90.6595 17.7257 90.4426 17.6553C90.2257 17.5849 90.0259 17.4698 89.8562 17.3174C89.6865 17.165 89.5507 16.9788 89.4573 16.7707C89.364 16.5626 89.3153 16.3373 89.3145 16.1092V16.1092ZM92.7879 15.6475V15.1957L91.4684 15.2801C90.7242 15.3299 90.3867 15.583 90.3867 16.0594C90.3867 16.5457 90.8086 16.8287 91.3887 16.8287C91.5587 16.8459 91.7304 16.8288 91.8936 16.7783C92.0568 16.7277 92.2082 16.6449 92.3387 16.5347C92.4693 16.4245 92.5763 16.2892 92.6535 16.1367C92.7306 15.9843 92.7763 15.8179 92.7879 15.6475V15.6475Z" fill="white"/>
<path d="M95.2512 14.9332C95.2512 13.2258 96.129 12.1442 97.4942 12.1442C97.8319 12.1286 98.167 12.2095 98.4605 12.3774C98.7539 12.5452 98.9935 12.7932 99.1512 13.0922H99.2309V10.1244H100.297V17.6373H99.2754V16.7836H99.1911C99.0211 17.0806 98.7732 17.3254 98.4741 17.4916C98.175 17.6578 97.8361 17.739 97.4942 17.7264C96.1196 17.7264 95.2512 16.6448 95.2512 14.9332ZM96.3528 14.9332C96.3528 16.0793 96.8931 16.769 97.7966 16.769C98.6954 16.769 99.2509 16.0694 99.2509 14.9379C99.2509 13.8117 98.6895 13.1022 97.7966 13.1022C96.8989 13.1022 96.3528 13.7965 96.3528 14.9332H96.3528Z" fill="white"/>
<path d="M104.709 14.9332C104.675 14.5781 104.716 14.2198 104.829 13.8814C104.941 13.5429 105.123 13.2317 105.363 12.9677C105.603 12.7037 105.896 12.4928 106.222 12.3485C106.548 12.2041 106.901 12.1296 107.258 12.1296C107.614 12.1296 107.967 12.2041 108.293 12.3485C108.62 12.4928 108.912 12.7037 109.152 12.9677C109.392 13.2317 109.574 13.5429 109.687 13.8814C109.799 14.2198 109.84 14.5781 109.806 14.9332C109.84 15.2887 109.8 15.6475 109.688 15.9865C109.576 16.3255 109.394 16.6373 109.154 16.9018C108.914 17.1663 108.621 17.3777 108.294 17.5223C107.968 17.667 107.615 17.7417 107.258 17.7417C106.9 17.7417 106.547 17.667 106.221 17.5223C105.894 17.3777 105.601 17.1663 105.361 16.9018C105.121 16.6373 104.939 16.3255 104.827 15.9865C104.715 15.6475 104.675 15.2887 104.709 14.9332V14.9332ZM108.709 14.9332C108.709 13.7619 108.183 13.077 107.259 13.077C106.332 13.077 105.811 13.7619 105.811 14.9332C105.811 16.1139 106.332 16.7936 107.259 16.7936C108.183 16.7936 108.709 16.1092 108.709 14.9332Z" fill="white"/>
<path d="M111.237 12.2338H112.263V13.0922H112.343C112.478 12.7839 112.706 12.5254 112.995 12.3529C113.284 12.1803 113.62 12.1022 113.956 12.1295C114.218 12.1097 114.482 12.1494 114.728 12.2455C114.974 12.3416 115.194 12.4917 115.374 12.6847C115.554 12.8778 115.687 13.1087 115.766 13.3605C115.844 13.6123 115.864 13.8784 115.826 14.1393V17.6373H114.759V14.407C114.759 13.5387 114.382 13.1068 113.593 13.1068C113.415 13.0985 113.237 13.1289 113.071 13.1959C112.905 13.2629 112.756 13.3649 112.634 13.495C112.511 13.6251 112.418 13.7801 112.361 13.9494C112.304 14.1188 112.284 14.2985 112.303 14.4762V17.6373H111.237V12.2338Z" fill="white"/>
<path d="M121.852 10.8885V12.2584H123.022V13.1567H121.852V15.9352C121.852 16.5012 122.085 16.749 122.616 16.749C122.752 16.7486 122.887 16.7404 123.022 16.7244V17.6127C122.831 17.647 122.637 17.6652 122.442 17.6672C121.256 17.6672 120.784 17.25 120.784 16.2082V13.1566H119.926V12.2584H120.784V10.8885H121.852Z" fill="white"/>
<path d="M124.479 10.1244H125.536V13.1022H125.62C125.762 12.791 125.996 12.5311 126.291 12.3578C126.586 12.1846 126.927 12.1065 127.268 12.1342C127.53 12.12 127.791 12.1636 128.034 12.2621C128.276 12.3605 128.495 12.5113 128.672 12.7037C128.85 12.8961 128.983 13.1254 129.062 13.3752C129.141 13.6249 129.164 13.889 129.129 14.1486V17.6373H128.061V14.4117C128.061 13.5486 127.659 13.1115 126.906 13.1115C126.723 13.0965 126.538 13.1217 126.366 13.1853C126.193 13.249 126.037 13.3496 125.907 13.4801C125.778 13.6106 125.678 13.7678 125.616 13.9408C125.553 14.1137 125.529 14.2983 125.545 14.4814V17.6373H124.479L124.479 10.1244Z" fill="white"/>
<path d="M135.347 16.1783C135.202 16.6722 134.888 17.0994 134.46 17.3851C134.032 17.6709 133.517 17.7971 133.005 17.7416C132.649 17.751 132.296 17.6828 131.969 17.5418C131.642 17.4008 131.349 17.1903 131.112 16.9249C130.874 16.6595 130.697 16.3457 130.593 16.0051C130.489 15.6645 130.461 15.3053 130.509 14.9526C130.462 14.5987 130.491 14.2388 130.595 13.8972C130.699 13.5556 130.875 13.2402 131.111 12.9726C131.347 12.7049 131.638 12.4911 131.964 12.3456C132.29 12.2002 132.644 12.1265 133.001 12.1295C134.504 12.1295 135.411 13.1567 135.411 14.8535V15.2256H131.596V15.2854C131.579 15.4837 131.604 15.6833 131.669 15.8714C131.734 16.0595 131.837 16.2319 131.973 16.3777C132.108 16.5234 132.273 16.6392 132.456 16.7177C132.639 16.7962 132.836 16.8356 133.035 16.8334C133.29 16.864 133.548 16.8181 133.777 16.7014C134.006 16.5848 134.195 16.4027 134.32 16.1783L135.347 16.1783ZM131.596 14.4369H134.325C134.338 14.2556 134.314 14.0734 134.253 13.9022C134.191 13.7309 134.095 13.5743 133.97 13.4425C133.845 13.3107 133.693 13.2065 133.525 13.1367C133.357 13.0669 133.177 13.033 132.995 13.0371C132.81 13.0348 132.627 13.0694 132.457 13.139C132.286 13.2085 132.131 13.3115 132 13.442C131.87 13.5725 131.767 13.7277 131.697 13.8986C131.628 14.0694 131.593 14.2525 131.596 14.4369H131.596Z" fill="white"/>
</g>
<defs>
<clipPath id="clip0_383_3735">
<rect width="162" height="48" fill="white" transform="translate(-0.000732422)"/>
</clipPath>
</defs>
</svg>
