<svg width="162" height="48" viewBox="0 0 162 48" fill="none" xmlns="http://www.w3.org/2000/svg">
<path d="M155.999 0H5.99997C2.68628 0 0 2.68628 0 5.99997V41.9998C0 45.3135 2.68628 47.9998 5.99997 47.9998H155.999C159.313 47.9998 161.999 45.3135 161.999 41.9998V5.99997C161.999 2.68628 159.313 0 155.999 0Z" fill="black"/>
<path d="M155.999 0.959969C157.335 0.961513 158.617 1.49304 159.561 2.43794C160.506 3.38284 161.038 4.66394 161.039 6.00018V42C161.038 43.3362 160.506 44.6173 159.561 45.5622C158.617 46.5071 157.335 47.0387 155.999 47.0402H5.99997C4.66372 47.0387 3.38264 46.5072 2.43779 45.5623C1.49293 44.6174 0.961472 43.3363 0.959995 42V6.00018C0.96145 4.66392 1.4929 3.38281 2.43776 2.43791C3.38262 1.493 4.66371 0.961487 5.99997 0.959969H155.999ZM155.999 0.000213623H5.99997C4.41011 0.00486732 2.8867 0.6385 1.76249 1.76271C0.638286 2.88691 0.00465369 4.41032 0 6.00018L0 42C0.00465369 43.5899 0.638286 45.1133 1.76249 46.2375C2.8867 47.3617 4.41011 47.9953 5.99997 48H155.999C157.589 47.9953 159.112 47.3617 160.237 46.2375C161.361 45.1133 161.995 43.5899 161.999 42V6.00018C161.995 4.41032 161.361 2.88691 160.237 1.76271C159.112 0.6385 157.589 0.00486732 155.999 0.000213623Z" fill="#A6A6A6"/>
<path d="M56.9018 12.2919C56.9237 12.7322 56.8556 13.1724 56.7019 13.5856C56.5482 13.9988 56.3119 14.3764 56.0076 14.6954C55.6666 15.0491 55.2547 15.3268 54.7989 15.5104C54.3431 15.6939 53.8537 15.7792 53.3627 15.7606C52.8686 15.765 52.3785 15.6706 51.9214 15.483C51.4643 15.2953 51.0493 15.0181 50.7008 14.6678C50.3523 14.3174 50.0774 13.9009 49.8921 13.4428C49.7069 12.9847 49.6151 12.4942 49.6222 12.0001C49.6152 11.5059 49.707 11.0154 49.8922 10.5573C50.0775 10.0991 50.3524 9.68263 50.7009 9.33224C51.0493 8.98185 51.4643 8.70464 51.9214 8.51688C52.3785 8.32913 52.8686 8.23462 53.3627 8.23891C53.8708 8.23737 54.3737 8.34009 54.8405 8.54071C55.274 8.71644 55.6599 8.99208 55.9667 9.34518L55.3338 9.97854C55.0926 9.69468 54.7895 9.47003 54.4477 9.32191C54.106 9.17379 53.7347 9.10617 53.3627 9.12427C52.9882 9.12233 52.6172 9.19599 52.2718 9.34084C51.9265 9.4857 51.6139 9.69876 51.3528 9.96727C51.0918 10.2358 50.8876 10.5542 50.7525 10.9035C50.6174 11.2528 50.5542 11.6258 50.5667 12.0001C50.5578 12.5607 50.7155 13.1113 51.02 13.5822C51.3244 14.0531 51.7618 14.4229 52.2767 14.6448C52.7917 14.8668 53.3609 14.9308 53.9122 14.8288C54.4636 14.7268 54.9722 14.4634 55.3737 14.072C55.7431 13.6738 55.9573 13.1563 55.9771 12.6135H53.3627V11.7487H56.8514C56.8844 11.9279 56.9013 12.1097 56.9018 12.2919Z" fill="white" stroke="white" stroke-width="0.2" stroke-miterlimit="10"/>
<path d="M62.4329 9.28484H59.1541V11.5676H62.1108V12.4325H59.1541V14.7153H62.4329V15.6H58.2295V8.40009H62.4329V9.28484Z" fill="white" stroke="white" stroke-width="0.2" stroke-miterlimit="10"/>
<path d="M66.3342 15.6H65.4084V9.28484H63.3975V8.40009H68.3451V9.28484H66.3342V15.6Z" fill="white" stroke="white" stroke-width="0.2" stroke-miterlimit="10"/>
<path d="M71.925 15.6V8.40009H72.8496V15.6H71.925Z" fill="white" stroke="white" stroke-width="0.2" stroke-miterlimit="10"/>
<path d="M76.9535 15.6H76.0277V9.28484H74.0168V8.40009H78.9644V9.28484H76.9535V15.6Z" fill="white" stroke="white" stroke-width="0.2" stroke-miterlimit="10"/>
<path d="M88.3307 14.6696C87.6299 15.3683 86.6807 15.7606 85.6911 15.7606C84.7015 15.7606 83.7523 15.3683 83.0515 14.6696C82.7048 14.3184 82.4323 13.9011 82.2501 13.4425C82.0679 12.9839 81.9797 12.4934 81.9909 12.0001C81.9797 11.5067 82.0679 11.0162 82.2501 10.5576C82.4323 10.099 82.7048 9.68171 83.0515 9.33056C83.3979 8.98408 83.8092 8.70932 84.2619 8.522C84.7146 8.33468 85.1998 8.23849 85.6897 8.23892C86.1797 8.23936 86.6647 8.33641 87.1171 8.52453C87.5695 8.71265 87.9803 8.98814 88.3261 9.33524C88.673 9.68546 88.9461 10.1018 89.1291 10.5596C89.312 11.0173 89.4012 11.5072 89.3913 12.0001C89.4022 12.4934 89.3139 12.9838 89.1317 13.4424C88.9496 13.9009 88.6772 14.3182 88.3307 14.6696ZM83.7346 14.0667C84.2537 14.5848 84.9571 14.8759 85.6905 14.8759C86.4239 14.8759 87.1273 14.5848 87.6464 14.0667C87.9125 13.7942 88.1207 13.4706 88.2583 13.1154C88.3958 12.7602 88.46 12.3808 88.4468 12.0001C88.46 11.6194 88.3958 11.24 88.2583 10.8848C88.1207 10.5296 87.9125 10.2059 87.6464 9.93343C87.1273 9.41528 86.4239 9.12427 85.6905 9.12427C84.9571 9.12427 84.2537 9.41528 83.7346 9.93343C83.4689 10.2061 83.261 10.5298 83.1237 10.885C82.9863 11.2402 82.9223 11.6195 82.9354 12.0001C82.9223 12.3806 82.9863 12.7599 83.1237 13.1151C83.261 13.4703 83.4689 13.794 83.7346 14.0667Z" fill="white" stroke="white" stroke-width="0.2" stroke-miterlimit="10"/>
<path d="M90.6897 15.6V8.40009H91.8159L95.3151 14.0011H95.3549L95.3151 12.6135V8.40009H96.2409V15.6H95.2752L91.6143 9.72776H91.5744L91.6143 11.1153V15.6H90.6897Z" fill="white" stroke="white" stroke-width="0.2" stroke-miterlimit="10"/>
<path d="M81.7626 26.1019C80.754 26.1057 79.7691 26.4083 78.9324 26.9714C78.0956 27.5346 77.4444 28.333 77.0611 29.2659C76.6778 30.1989 76.5795 31.2245 76.7786 32.2132C76.9777 33.202 77.4653 34.1096 78.1799 34.8214C78.8944 35.5333 79.8039 36.0174 80.7934 36.2128C81.7829 36.4082 82.8081 36.3059 83.7396 35.9191C84.671 35.5322 85.467 34.878 86.0269 34.0391C86.5869 33.2002 86.8857 32.2142 86.8857 31.2056C86.8956 30.531 86.7697 29.8613 86.5155 29.2363C86.2613 28.6113 85.884 28.0439 85.4061 27.5677C84.9281 27.0916 84.3592 26.7164 83.7333 26.4646C83.1073 26.2128 82.4372 26.0894 81.7626 26.1019ZM81.7626 34.2988C81.1414 34.3431 80.5213 34.1994 79.983 33.8863C79.4447 33.5732 79.0132 33.1054 78.7445 32.5436C78.4758 31.9818 78.3825 31.3521 78.4767 30.7366C78.5709 30.121 78.8483 29.5481 79.2726 29.0924C79.697 28.6366 80.2488 28.3192 80.8561 28.1815C81.4634 28.0437 82.0981 28.092 82.6775 28.32C83.257 28.548 83.7544 28.9452 84.105 29.4599C84.4555 29.9746 84.643 30.5829 84.6431 31.2056C84.6619 31.599 84.6019 31.9922 84.4664 32.3621C84.331 32.7319 84.123 33.0709 83.8546 33.3592C83.5862 33.6474 83.2628 33.879 82.9035 34.0404C82.5443 34.2018 82.1563 34.2896 81.7626 34.2988ZM70.5866 26.1019C69.5779 26.1057 68.5931 26.4083 67.7563 26.9714C66.9195 27.5345 66.2683 28.3329 65.885 29.2659C65.5016 30.1988 65.4033 31.2244 65.6024 32.2132C65.8015 33.2019 66.2891 34.1095 67.0037 34.8214C67.7182 35.5332 68.6277 36.0174 69.6172 36.2128C70.6067 36.4082 71.6319 36.306 72.5634 35.9191C73.4949 35.5322 74.2908 34.878 74.8508 34.0391C75.4108 33.2002 75.7096 32.2142 75.7096 31.2056C75.7195 30.531 75.5936 29.8613 75.3394 29.2363C75.0852 28.6114 74.7079 28.0439 74.23 27.5678C73.752 27.0916 73.1831 26.7164 72.5572 26.4646C71.9313 26.2128 71.2611 26.0894 70.5866 26.1019ZM70.5866 34.2988C69.9654 34.3431 69.3453 34.1994 68.807 33.8863C68.2687 33.5732 67.8371 33.1054 67.5685 32.5436C67.2998 31.9818 67.2065 31.3521 67.3007 30.7366C67.3949 30.121 67.6722 29.5481 68.0966 29.0924C68.521 28.6366 69.0727 28.3192 69.68 28.1815C70.2873 28.0437 70.922 28.092 71.5015 28.32C72.081 28.548 72.5784 28.9452 72.9289 29.4599C73.2795 29.9746 73.467 30.5829 73.467 31.2056C73.4859 31.599 73.4259 31.9922 73.2904 32.3621C73.155 32.7319 72.947 33.0709 72.6786 33.3592C72.4102 33.6474 72.0868 33.879 71.7275 34.0404C71.3683 34.2018 70.9803 34.2896 70.5866 34.2988ZM57.2921 27.6679V29.833H62.4733C62.3985 30.8486 61.9829 31.8091 61.2939 32.559C60.7747 33.0882 60.1503 33.5027 59.461 33.7757C58.7717 34.0488 58.0329 34.1743 57.2921 34.1441C55.7777 34.1236 54.3322 33.5076 53.2685 32.4295C52.2049 31.3513 51.6085 29.8976 51.6085 28.3831C51.6085 26.8685 52.2049 25.4149 53.2685 24.3367C54.3322 23.2585 55.7777 22.6425 57.2921 22.622C58.7467 22.603 60.1501 23.1588 61.1973 24.1686L62.7246 22.6414C62.01 21.934 61.1615 21.3764 60.2286 21.0012C59.2958 20.6261 58.2974 20.441 57.2921 20.4568C56.2415 20.4415 55.1983 20.6352 54.2232 21.0267C53.2482 21.4181 52.3606 21.9995 51.6123 22.7371C50.8639 23.4746 50.2696 24.3536 49.864 25.3229C49.4584 26.2921 49.2495 27.3324 49.2495 28.3831C49.2495 29.4338 49.4584 30.474 49.864 31.4433C50.2696 32.4126 50.8639 33.2915 51.6123 34.0291C52.3606 34.7666 53.2482 35.348 54.2232 35.7395C55.1983 36.131 56.2415 36.3247 57.2921 36.3094C58.3186 36.352 59.3425 36.1758 60.2957 35.7925C61.249 35.4092 62.1098 34.8275 62.8212 34.0862C64.084 32.7077 64.7572 30.8897 64.6965 29.0211C64.7015 28.5674 64.6626 28.1142 64.5804 27.6679H57.2921ZM111.662 29.3497C111.355 28.4252 110.771 27.6176 109.989 27.0366C109.208 26.4555 108.266 26.1292 107.293 26.1019C106.637 26.106 105.989 26.243 105.387 26.5046C104.786 26.7663 104.244 27.1471 103.794 27.6242C103.344 28.1012 102.996 28.6646 102.77 29.2801C102.544 29.8957 102.445 30.5507 102.479 31.2056C102.464 31.8766 102.585 32.5437 102.834 33.1671C103.082 33.7904 103.454 34.3572 103.927 34.8336C104.4 35.31 104.964 35.6862 105.585 35.9398C106.207 36.1934 106.873 36.3191 107.544 36.3094C108.385 36.3141 109.214 36.1098 109.956 35.715C110.698 35.3202 111.331 34.7473 111.797 34.0475L110.057 32.8876C109.796 33.3205 109.428 33.6782 108.987 33.9256C108.547 34.173 108.049 34.3016 107.544 34.2988C107.024 34.3187 106.51 34.1819 106.069 33.9061C105.628 33.6304 105.279 33.2284 105.069 32.7523L111.894 29.9298L111.662 29.3497ZM104.702 31.051C104.678 30.6796 104.728 30.307 104.85 29.9552C104.972 29.6035 105.162 29.2795 105.411 29.0022C105.659 28.725 105.96 28.5001 106.297 28.3407C106.633 28.1813 106.998 28.0906 107.37 28.0739C107.757 28.0484 108.143 28.1375 108.48 28.33C108.817 28.5225 109.09 28.81 109.265 29.1565L104.702 31.051ZM99.1536 36.0001H101.396V20.9982H99.1536V36.0001ZM95.4804 27.2425H95.4032C95.0622 26.8721 94.6461 26.5787 94.1827 26.382C93.7193 26.1853 93.2192 26.0898 92.7159 26.1019C91.3999 26.1579 90.1563 26.7201 89.2449 27.6711C88.3335 28.6221 87.8247 29.8884 87.8247 31.2057C87.8247 32.5229 88.3335 33.7892 89.2449 34.7402C90.1563 35.6912 91.3999 36.2534 92.7159 36.3094C93.2212 36.3229 93.7233 36.2261 94.1874 36.0257C94.6515 35.8254 95.0664 35.5264 95.4032 35.1495H95.4804V35.8841C95.4804 37.8368 94.4366 38.8806 92.7545 38.8806C92.194 38.8672 91.6501 38.6872 91.1922 38.3636C90.7343 38.0399 90.3831 37.5873 90.1834 37.0634L88.2308 37.8754C88.5988 38.7714 89.226 39.5371 90.0319 40.0744C90.8379 40.6117 91.7859 40.8961 92.7545 40.8912C95.3838 40.8912 97.6071 39.3447 97.6071 35.5748V26.4111H95.4804V27.2425ZM92.9093 34.2988C92.1342 34.2331 91.412 33.8787 90.8857 33.3059C90.3594 32.7331 90.0673 31.9836 90.0673 31.2057C90.0673 30.4278 90.3594 29.6782 90.8857 29.1054C91.412 28.5326 92.1342 28.1782 92.9093 28.1125C93.295 28.1313 93.6728 28.2276 94.0205 28.3956C94.3681 28.5636 94.6783 28.7998 94.9327 29.0903C95.1871 29.3807 95.3803 29.7194 95.501 30.0862C95.6217 30.4529 95.6673 30.8402 95.6351 31.2249C95.6653 31.6073 95.618 31.9918 95.4961 32.3554C95.3742 32.7191 95.1803 33.0545 94.9258 33.3414C94.6713 33.6284 94.3616 33.8611 94.0151 34.0256C93.6686 34.1901 93.2925 34.283 92.9093 34.2988ZM122.166 20.9984H116.801V36.0001H119.04V30.3164H122.166C122.8 30.3511 123.433 30.2564 124.029 30.0379C124.624 29.8195 125.169 29.4819 125.63 29.0459C126.09 28.6098 126.457 28.0845 126.708 27.5019C126.958 26.9193 127.088 26.2917 127.088 25.6574C127.088 25.0232 126.958 24.3956 126.708 23.813C126.457 23.2304 126.09 22.705 125.63 22.269C125.169 21.8329 124.624 21.4954 124.029 21.2769C123.433 21.0585 122.8 20.9637 122.166 20.9984ZM122.224 28.2287H119.04V23.0863H122.224C122.566 23.0792 122.906 23.1405 123.225 23.2665C123.543 23.3925 123.833 23.5808 124.077 23.8203C124.322 24.0597 124.516 24.3456 124.648 24.661C124.781 24.9765 124.849 25.3153 124.849 25.6575C124.849 25.9997 124.781 26.3385 124.648 26.6539C124.516 26.9694 124.322 27.2552 124.077 27.4947C123.833 27.7342 123.543 27.9224 123.225 28.0484C122.906 28.1745 122.566 28.2357 122.224 28.2287ZM136.062 26.0743C135.245 26.0266 134.432 26.2185 133.722 26.6265C133.012 27.0345 132.437 27.6408 132.067 28.371L134.055 29.2009C134.252 28.8385 134.551 28.5414 134.914 28.346C135.277 28.1506 135.69 28.0653 136.101 28.1007C136.669 28.0453 137.236 28.2173 137.677 28.5791C138.118 28.9408 138.398 29.4629 138.455 30.0307V30.1851C137.736 29.8031 136.934 29.6043 136.12 29.6061C133.978 29.6061 131.797 30.7834 131.797 32.9836C131.818 33.4473 131.931 33.9021 132.131 34.321C132.331 34.7399 132.613 35.1143 132.961 35.4221C133.308 35.7299 133.714 35.9648 134.154 36.1129C134.594 36.2609 135.059 36.319 135.522 36.2839C136.085 36.317 136.648 36.1985 137.15 35.9405C137.653 35.6825 138.077 35.2946 138.378 34.8171H138.455V35.9751H140.617V30.2238C140.617 27.5604 138.629 26.0743 136.062 26.0743ZM135.792 34.2959C135.059 34.2959 134.036 33.9293 134.036 33.0221C134.036 31.8643 135.309 31.4203 136.41 31.4203C137.124 31.4012 137.831 31.5746 138.455 31.9221C138.373 32.5728 138.058 33.1717 137.568 33.6081C137.079 34.0445 136.448 34.2888 135.792 34.2959ZM148.491 26.4024L145.924 32.9063H145.847L143.184 26.4024H140.771L144.766 35.4926L142.489 40.5491H144.824L150.981 26.4024H148.491ZM128.323 36.0001H130.562V20.9984H128.323V36.0001Z" fill="white"/>
<path d="M12.5224 9.04568C12.1289 9.51616 11.9302 10.1193 11.967 10.7315V37.2707C11.9301 37.883 12.1288 38.4862 12.5224 38.9566L12.6112 39.0431L27.4779 24.1765V23.8258L12.6112 8.95856L12.5224 9.04568Z" fill="url(#paint0_linear_430_187)"/>
<path d="M32.433 29.1342L27.4778 24.1765V23.8257L32.4342 18.8693L32.546 18.933L38.4173 22.2691C40.0944 23.2219 40.0944 24.7809 38.4173 25.7343L32.546 29.0704L32.433 29.1342Z" fill="url(#paint1_linear_430_187)"/>
<path d="M32.5459 29.0698L27.4777 24.0012L12.5222 38.9566C12.8639 39.258 13.3003 39.4303 13.7558 39.4438C14.2112 39.4572 14.657 39.311 15.0159 39.0303L32.5459 29.0698Z" fill="url(#paint2_linear_430_187)"/>
<path d="M32.5459 18.9324L15.0159 8.97199C14.657 8.6913 14.2112 8.54501 13.7558 8.55847C13.3003 8.57193 12.8639 8.74428 12.5222 9.04567L27.4777 24.0012L32.5459 18.9324Z" fill="url(#paint3_linear_430_187)"/>
<path opacity="0.2" d="M32.4342 28.9583L15.0159 38.855C14.6708 39.1177 14.2496 39.261 13.8159 39.2633C13.3822 39.2656 12.9595 39.1268 12.6116 38.8678L12.5222 38.9572L12.611 39.0437L12.6116 39.0431C12.9594 39.3023 13.3822 39.4412 13.8159 39.4389C14.2497 39.4366 14.6709 39.2931 15.0159 39.0303L32.5459 29.0699L32.4342 28.9583Z" fill="black"/>
<path opacity="0.12" d="M12.5223 38.7819C12.1289 38.3114 11.9302 37.7082 11.967 37.096V37.2713C11.9302 37.8836 12.1289 38.4867 12.5223 38.9572L12.6117 38.8678L12.5223 38.7819Z" fill="black"/>
<path opacity="0.12" d="M38.4174 25.5584L32.4343 28.9583L32.546 29.0699L38.4174 25.7338C38.7628 25.5839 39.0616 25.3441 39.2829 25.0395C39.5041 24.7349 39.6396 24.3765 39.6753 24.0017C39.6011 24.3411 39.4487 24.6585 39.2304 24.9288C39.012 25.199 38.7336 25.4146 38.4174 25.5584Z" fill="black"/>
<path opacity="0.25" d="M15.0161 9.14792L38.4174 22.4439C38.7338 22.5877 39.0123 22.8033 39.2307 23.0737C39.449 23.3441 39.6013 23.6617 39.6754 24.0012C39.6399 23.6263 39.5045 23.2677 39.2832 22.9629C39.062 22.6582 38.763 22.4184 38.4174 22.2685L15.0161 8.9726C13.339 8.01969 11.967 8.8112 11.967 10.7322V10.9075C11.967 8.98664 13.339 8.19513 15.0161 9.14792Z" fill="white"/>
<defs>
<linearGradient id="paint0_linear_430_187" x1="26.1595" y1="10.4517" x2="6.02071" y2="30.5905" gradientUnits="userSpaceOnUse">
<stop stop-color="#00A0FF"/>
<stop offset="0.00657" stop-color="#00A1FF"/>
<stop offset="0.2601" stop-color="#00BEFF"/>
<stop offset="0.5122" stop-color="#00D2FF"/>
<stop offset="0.7604" stop-color="#00DFFF"/>
<stop offset="1" stop-color="#00E3FF"/>
</linearGradient>
<linearGradient id="paint1_linear_430_187" x1="40.6009" y1="24.0017" x2="11.5648" y2="24.0017" gradientUnits="userSpaceOnUse">
<stop stop-color="#FFE000"/>
<stop offset="0.4087" stop-color="#FFBD00"/>
<stop offset="0.7754" stop-color="#FFA500"/>
<stop offset="1" stop-color="#FF9C00"/>
</linearGradient>
<linearGradient id="paint2_linear_430_187" x1="29.792" y1="26.7553" x2="2.48219" y2="54.0651" gradientUnits="userSpaceOnUse">
<stop stop-color="#FF3A44"/>
<stop offset="1" stop-color="#C31162"/>
</linearGradient>
<linearGradient id="paint3_linear_430_187" x1="8.75655" y1="0.211526" x2="20.9515" y2="12.4065" gradientUnits="userSpaceOnUse">
<stop stop-color="#32A071"/>
<stop offset="0.0685" stop-color="#2DA771"/>
<stop offset="0.4762" stop-color="#15CF74"/>
<stop offset="0.8009" stop-color="#06E775"/>
<stop offset="1" stop-color="#00F076"/>
</linearGradient>
</defs>
</svg>
